<svg xmlns="http://www.w3.org/2000/svg" fill="none" viewBox="-0.5 -0.5 24 24" id="Django-Icon--Streamline-Svg-Logos.svg" height="24" width="24"><desc>Django Icon Streamline Icon: https://streamlinehq.com</desc><path fill="#092E20" d="M20.2972125 0.23958333333333334H2.7027875000000003C1.3424021875 0.23958333333333334 0.23958333333333334 1.3424021875 0.23958333333333334 2.7027875000000003v17.594425C0.23958333333333334 21.657590625 1.3424021875 22.760416666666668 2.7027875000000003 22.760416666666668h17.594425C21.657590625 22.760416666666668 22.760416666666668 21.657590625 22.760416666666668 20.2972125V2.7027875000000003C22.760416666666668 1.3424021875 21.657590625 0.23958333333333334 20.2972125 0.23958333333333334Z" stroke-width="1"></path><path fill="#FFFFFD" d="M16.635540625 8.526363541666667V14.352479166666667c0 2.007420833333333 -0.14686458333333333 2.9702343750000004 -0.5874822916666668 3.802594791666667 -0.40805833333333336 0.799825 -0.9466895833333334 1.3055854166666667 -2.0563677083333336 1.8605322916666667l-2.33378125 -1.1097739583333335c1.1097739583333335 -0.5221958333333334 1.6482854166666667 -0.979009375 1.9909854166666667 -1.6810364583333333 0.3591114583333333 -0.71803125 0.47346458333333336 -1.5503916666666666 0.47346458333333336 -3.7372125000000005V8.526363541666667h2.51318125ZM12.63735 4.645137500000001v11.633280208333334c-1.2892937500000001 0.24478229166666668 -2.2358875 0.34267604166666665 -3.2639635416666666 0.34267604166666665 -3.0682479166666665 0 -4.667586458333333 -1.3870916666666668 -4.667586458333333 -4.047353125 0 -2.5622479166666667 1.6973520833333333 -4.226777083333333 4.324790625 -4.226777083333333 0.40796250000000006 0 0.7180072916666668 0.03253541666666667 1.0934583333333334 0.130453125V4.645137500000001h2.513301041666667ZM9.275468750000002 10.370508333333333c-1.2729541666666668 0 -2.007420833333333 0.7833895833333334 -2.007420833333333 2.154165625 0 1.3383604166666667 0.7018114583333334 2.0726833333333334 1.9911052083333336 2.0726833333333334 0.27731770833333336 0 0.5058802083333334 -0.016315625 0.8648958333333333 -0.06516666666666668V10.5009375c-0.293753125 -0.09779791666666668 -0.5385114583333334 -0.13042916666666668 -0.8485802083333334 -0.13042916666666668Zm7.360071875000001 -5.712002083333333V7.2370937500000005H14.122359375000002V4.658506249999999h2.51318125Z" stroke-width="1"></path></svg>