<svg xmlns="http://www.w3.org/2000/svg" fill="none" viewBox="-0.5 -0.5 24 24" id="Nextjs--Streamline-Svg-Logos.svg" height="24" width="24"><desc>Nextjs Streamline Icon: https://streamlinehq.com</desc><path fill="#000000" d="M19.133484375000002 9.231696875v0.7240447916666667h-1.5561177083333333V13.76478125h-0.77811875V9.955741666666666h-1.5885093750000001v-0.7240447916666667h3.922745833333334Zm0.17489583333333333 4.101235416666667c0.054816666666666666 0 0.10278125 0.019741666666666668 0.14336666666666667 0.059225 0.041136458333333334 0.039483333333333336 0.06166875000000001 0.086753125 0.062243749999999994 0.14183333333333334 -0.000575 0.03739895833333333 -0.0100625 0.07168333333333334 -0.0290375 0.10232604166666666 -0.019502083333333333 0.031169791666666665 -0.04425104166666667 0.05558333333333334 -0.075396875 0.073240625 -0.030570833333333332 0.018184375 -0.06430416666666668 0.027528125 -0.10117604166666667 0.027528125 -0.05697291666666667 0 -0.10546458333333333 -0.019717708333333334 -0.14605 -0.05920104166666666 -0.040561458333333335 -0.039483333333333336 -0.06063854166666667 -0.08728020833333335 -0.06011145833333334 -0.14389375000000001 -0.0005270833333333334 -0.05508020833333333 0.01955 -0.10235000000000001 0.06011145833333334 -0.14183333333333334 0.040585416666666665 -0.039483333333333336 0.08907708333333333 -0.059225 0.14605 -0.059225ZM3.8867364583333335 13.76478125 1.0176445833333334 10.198751041666666v3.5641375H0.23958333333333334V9.229804166666668h0.9725741666666669L4.8368520833333335 13.730832291666667l0.000071875 -3.7750906250000003 -0.0003354166666666667 -0.7240447916666667h3.9227218750000006v0.7240447916666667H5.6149708333333335v1.164734375h2.528682291666667v0.7240447916666667H5.6149708333333335v1.1962395833333335h3.1443395833333336v0.7240208333333333H3.8867364583333335Zm7.366277083333334 -1.9271843750000002 0.5099291666666667 0.6340093750000001 -1.0448947916666667 1.2985177083333335H9.696895833333333l1.5561177083333333 -1.9325270833333335Zm-0.534965625 -2.6040072916666666 1.3165104166666668 1.6349645833333335 1.3123895833333334 -1.6299333333333335 1.0182770833333334 -0.00158125 -1.8208572916666668 2.2646614583333338 1.8237802083333334 2.264972916666667H13.346947916666668L9.69981875 9.233589583333334h1.0182291666666667Zm9.918318750000001 2.593848958333333h0.34478437500000003v1.3283458333333336c-0.000503125 0.12209166666666668 -0.026929166666666667 0.22650208333333335 -0.07853541666666666 0.3142854166666667 -0.05218125 0.08780729166666666 -0.12443958333333333 0.15481875 -0.21720625 0.20208854166666668 -0.09223958333333333 0.046742708333333334 -0.20033958333333335 0.070653125 -0.32317395833333334 0.070653125 -0.11231666666666668 0 -0.21296562500000002 -0.02026875 -0.30259375 -0.05975208333333334 -0.089628125 -0.039459375000000005 -0.16080833333333333 -0.098684375 -0.21298958333333334 -0.17662083333333334 -0.052756250000000005 -0.0779125 -0.07858333333333334 -0.17506354166666668 -0.07858333333333334 -0.2914291666666667h0.345359375c0.000503125 0.05091145833333333 0.012098958333333335 0.09506666666666666 0.03423645833333334 0.13193854166666666 0.022113541666666667 0.036895833333333336 0.052684375000000006 0.06495104166666667 0.09173645833333334 0.08469270833333334 0.039483333333333336 0.019741666666666668 0.084884375 0.0296125 0.1359875 0.0296125 0.055367708333333335 0 0.10282916666666668 -0.011452083333333335 0.14128229166666667 -0.03481145833333334 0.038477083333333335 -0.02285625 0.06801770833333333 -0.057140625 0.08859791666666668 -0.10287708333333334 0.020005208333333337 -0.045185416666666665 0.03059479166666667 -0.10129583333333333 0.031097916666666666 -0.16778020833333335v-1.3283458333333336Zm1.7634291666666668 0.5194885416666667c-0.008409375 -0.08052395833333334 -0.04532916666666667 -0.14336666666666667 -0.10963333333333333 -0.18804895833333335 -0.06487916666666667 -0.045209375 -0.14866145833333336 -0.06753854166666666 -0.251490625 -0.06753854166666666 -0.07221041666666667 0 -0.13438229166666665 0.010925 -0.18606041666666667 0.03222395833333334 -0.051678125000000005 0.021802083333333333 -0.09173645833333334 0.0508875 -0.11916875 0.08778333333333334 -0.027384375000000002 0.036871875000000005 -0.0411125 0.07896666666666667 -0.042190625 0.12623645833333336 0 0.039483333333333336 0.009487500000000001 0.07376770833333333 0.027959375 0.10235000000000001 0.018447916666666668 0.029085416666666666 0.043196874999999996 0.05349895833333333 0.07537291666666666 0.073240625 0.031625 0.02026875 0.06693958333333333 0.036871875000000005 0.10546458333333333 0.050384375 0.038980208333333335 0.0135125 0.07803229166666667 0.024940625 0.1170125 0.034284375000000006l0.179759375 0.044155208333333335c0.07225833333333333 0.016627083333333334 0.142384375 0.038980208333333335 0.20932395833333334 0.06753854166666666 0.06693958333333333 0.028055208333333335 0.127578125 0.063896875 0.18078958333333336 0.107021875 0.053283333333333335 0.043125 0.09545 0.09506666666666666 0.12654791666666668 0.15584895833333334 0.031097916666666666 0.06078229166666666 0.046934375 0.13193854166666666 0.046934375 0.21401979166666668 0 0.11066354166666667 -0.0284625 0.20781458333333333 -0.08596250000000001 0.29195625 -0.05745208333333334 0.08363854166666668 -0.140228125 0.14909270833333332 -0.24883125 0.1963625 -0.10807604166666668 0.04676666666666667 -0.23879270833333335 0.070653125 -0.392725 0.070653125 -0.14868541666666668 0 -0.278371875 -0.02285625 -0.38750208333333336 -0.06856875000000001 -0.10963333333333333 -0.045185416666666665 -0.19506875 -0.11169375000000001 -0.25676145833333336 -0.19897395833333334 -0.06166875000000001 -0.08725625000000001 -0.09487500000000001 -0.19375104166666668 -0.09961875 -0.31895729166666664h0.3416458333333333c0.004743750000000001 0.06545416666666667 0.025827083333333337 0.12000729166666667 0.06166875000000001 0.16416250000000002 0.03636875 0.043628125000000004 0.08380625 0.07585208333333333 0.141809375 0.09765416666666668 0.05853020833333333 0.021298958333333336 0.12386458333333335 0.03222395833333334 0.19612291666666667 0.03222395833333334 0.075396875 0 0.141809375 -0.011428125 0.19926145833333334 -0.03378125 0.056925 -0.022329166666666667 0.10175104166666668 -0.05349895833333333 0.13392708333333336 -0.09401250000000001 0.03267916666666667 -0.04001041666666667 0.04904270833333333 -0.08728020833333335 0.04954583333333334 -0.14130625 -0.000503125 -0.049354166666666664 -0.015309375 -0.09039479166666668 -0.043771875 -0.12261875000000001 -0.028989583333333332 -0.0322 -0.06904791666666667 -0.05920104166666666 -0.12022291666666668 -0.08102708333333333 -0.051606250000000006 -0.021826041666666667 -0.11174166666666667 -0.041567708333333335 -0.1802625 -0.05869791666666667l-0.21823645833333336 -0.05508020833333333c-0.15764583333333335 -0.039986458333333336 -0.2826125 -0.10076875 -0.373821875 -0.18232291666666667 -0.09168854166666666 -0.08157812500000002 -0.13708958333333335 -0.18963020833333333 -0.13708958333333335 -0.32521041666666667 0 -0.11116666666666668 0.03059479166666667 -0.20882083333333334 0.09233541666666667 -0.2924833333333334 0.06109375 -0.08361458333333333 0.14494791666666668 -0.148565625 0.250915625 -0.19480520833333334 0.10649479166666667 -0.046742708333333334 0.22669375000000003 -0.06959895833333334 0.36057291666666663 -0.06959895833333334 0.13603541666666666 0 0.25515625 0.02285625 0.35798541666666667 0.06959895833333334 0.10278125 0.046239583333333334 0.18347291666666668 0.11066354166666667 0.24195520833333334 0.19274479166666666 0.05853020833333333 0.08208125000000001 0.08910104166666667 0.17609375 0.09070625 0.2825885416666667h-0.33426666666666666Z" stroke-width="1"></path></svg>