<svg xmlns="http://www.w3.org/2000/svg" fill="none" viewBox="-0.5 -0.5 24 24" id="Typescript-Icon--Streamline-Svg-Logos.svg" height="24" width="24"><desc>Typescript Icon Streamline Icon: https://streamlinehq.com</desc><path fill="#3178C6" d="M1.9990234375 0.23958333333333334H21.000964583333335C21.972690625000002 0.23958333333333334 22.760416666666668 1.0273117708333335 22.760416666666668 1.9990234375V21.000964583333335C22.760416666666668 21.972690625000002 21.972690625000002 22.760416666666668 21.000964583333335 22.760416666666668H1.9990234375C1.0273117708333335 22.760416666666668 0.23958333333333334 21.972690625000002 0.23958333333333334 21.000964583333335V1.9990234375C0.23958333333333334 1.0273117708333335 1.0273117708333335 0.23958333333333334 1.9990234375 0.23958333333333334Z" stroke-width="1"></path><path fill="#ffffff" d="M13.480946875 17.875767708333335v2.4297822916666667c0.39516875 0.2025197916666667 0.862571875 0.35436770833333336 1.4021135416666666 0.455615625 0.5395177083333333 0.10124791666666666 1.10816875 0.1518479166666667 1.7060250000000001 0.1518479166666667 0.582546875 0 1.1360802083333335 -0.055703125000000006 1.660384375 -0.16706145833333336 0.524328125 -0.11138229166666666 0.9841604166666668 -0.29487916666666664 1.3792333333333333 -0.5504427083333333 0.39516875 -0.255659375 0.7079927083333333 -0.5897583333333333 0.9385677083333334 -1.00236875 0.23047916666666668 -0.412490625 0.34574270833333337 -0.9224677083333334 0.34574270833333337 -1.5299072916666667 0 -0.440378125 -0.065909375 -0.82641875 -0.197584375 -1.157978125 -0.13169895833333334 -0.331559375 -0.3217125 -0.6264385416666667 -0.5699927083333334 -0.884565625 -0.2481604166666667 -0.2581989583333334 -0.5458427083333334 -0.48973229166666665 -0.8928072916666667 -0.6947916666666667 -0.3470604166666667 -0.20498750000000002 -0.73844375 -0.39859479166666667 -1.1741739583333335 -0.5807979166666667 -0.31914895833333334 -0.13169895833333334 -0.6053312500000001 -0.2594208333333333 -0.858690625 -0.38347708333333336 -0.25326354166666665 -0.12403229166666668 -0.468625 -0.2505322916666667 -0.6458927083333333 -0.37966770833333335 -0.17733958333333333 -0.12906354166666667 -0.31414166666666665 -0.26576979166666664 -0.4103822916666667 -0.41004687500000003 -0.09624062500000001 -0.14427708333333333 -0.14437291666666668 -0.3074572916666667 -0.14437291666666668 -0.48973229166666665 0 -0.16706145833333336 0.043029166666666674 -0.31759166666666666 0.12915937500000002 -0.451734375 0.08610625000000001 -0.13416666666666668 0.207790625 -0.24931041666666667 0.3648135416666667 -0.34547916666666667 0.15702291666666668 -0.09624062500000001 0.3495041666666667 -0.170846875 0.5775395833333333 -0.22405833333333336 0.227915625 -0.05313958333333334 0.481275 -0.079709375 0.7598864583333333 -0.079709375 0.2026875 0 0.41673125000000005 0.015213541666666667 0.6421072916666667 0.045568750000000005 0.22547187500000002 0.030355208333333335 0.45218958333333337 0.07714583333333334 0.6802010416666667 0.14049166666666668 0.22793958333333333 0.06325 0.4495541666666667 0.142959375 0.6648916666666667 0.2392 0.215265625 0.09614479166666667 0.41416770833333333 0.20752708333333333 0.5965385416666666 0.33402708333333336v-2.270291666666667c-0.3698208333333334 -0.14171354166666666 -0.7738781250000001 -0.24677083333333336 -1.2120760416666667 -0.31512395833333334 -0.43817395833333334 -0.068353125 -0.9410354166666667 -0.10246979166666667 -1.508440625 -0.10246979166666667 -0.5775395833333333 0 -1.1246520833333336 0.062004166666666666 -1.6413854166666668 0.18606041666666667 -0.5167572916666666 0.12393645833333333 -0.9714864583333334 0.3175677083333333 -1.3640916666666667 0.5807739583333333 -0.3926291666666667 0.2633020833333333 -0.7029135416666666 0.598646875 -0.9309250000000001 1.0061541666666667 -0.22793958333333333 0.40748333333333336 -0.34195729166666666 0.8946760416666667 -0.34195729166666666 1.46165 0 0.7238291666666666 0.208940625 1.3414031250000003 0.6269895833333333 1.8526739583333334 0.417953125 0.5112229166666666 1.05239375 0.9440302083333334 1.9035375 1.2983979166666668 0.33438645833333336 0.13670625 0.6459645833333334 0.2707770833333334 0.9346864583333334 0.4024520833333333 0.28881770833333337 0.13162708333333334 0.5383197916666668 0.2682375 0.7485541666666667 0.4099510416666667 0.21025833333333335 0.14173750000000002 0.3761697916666667 0.296125 0.4977583333333333 0.46318645833333333 0.12156458333333332 0.16706145833333336 0.18237083333333334 0.3569072916666667 0.18237083333333334 0.5695375 0 0.15685520833333333 -0.038021875000000004 0.3024260416666667 -0.11401770833333333 0.43659270833333336 -0.07592395833333335 0.13407083333333333 -0.191259375 0.25055625000000004 -0.34574270833333337 0.349240625 -0.154459375 0.09870833333333333 -0.3470364583333333 0.175878125 -0.577515625 0.2315572916666667 -0.230503125 0.05567916666666667 -0.5002979166666667 0.08356666666666666 -0.8093604166666667 0.08356666666666666 -0.5268677083333334 0 -1.0486083333333334 -0.09235937500000001 -1.5653656249999999 -0.2771979166666667 -0.5168291666666667 -0.18474270833333334 -0.9955885416666667 -0.4618447916666667 -1.4363260416666668 -0.8314260416666667ZM9.431078125 11.829187500000002h3.1245739583333334v-2.0006645833333336H3.846438541666667v2.0006645833333336h3.1093364583333334v8.907876041666668h2.475303125V11.829187500000002Z" stroke-width="1"></path></svg>